<svg width="503" height="192" viewBox="0 0 503 192" fill="none" xmlns="http://www.w3.org/2000/svg">
<path d="M57.3484 97.248C53.4035 97.2471 49.5468 98.4161 46.2662 100.607C42.9856 102.799 40.4284 105.913 38.9181 109.558C37.4077 113.203 37.0121 117.214 37.7811 121.084C38.5501 124.953 40.4493 128.508 43.2385 131.298C46.0276 134.088 49.5815 135.988 53.4506 136.758C57.3197 137.529 61.3302 137.134 64.975 135.624C68.6198 134.115 71.7351 131.558 73.9269 128.278C76.1187 124.997 77.2886 121.14 77.2886 117.195C77.2886 111.906 75.1879 106.833 71.4485 103.092C67.7092 99.3515 62.6373 97.2494 57.3484 97.248Z" fill="#1A1818"/>
<path d="M95.9906 0C77.0054 0 58.4467 5.6303 42.6611 16.1789C26.8755 26.7275 14.5722 41.7207 7.30689 59.2624C0.0415914 76.8041 -1.85934 96.1065 1.84447 114.729C5.54829 133.351 14.6905 150.456 28.115 163.882C41.5395 177.308 58.6434 186.451 77.2638 190.155C95.8841 193.86 115.185 191.958 132.725 184.692C150.265 177.426 165.256 165.122 175.804 149.335C186.351 133.548 191.981 114.987 191.981 96C191.981 70.5392 181.868 46.1212 163.866 28.1177C145.864 10.1143 121.449 0 95.9906 0ZM117.186 157.091C116.465 157.091 115.755 157.071 115.048 157.03C114.824 157.02 114.6 156.999 114.378 156.979C113.896 156.948 113.41 156.913 112.931 156.862C112.673 156.831 112.413 156.797 112.155 156.76C111.719 156.709 111.277 156.654 110.839 156.583C110.569 156.537 110.306 156.486 110.042 156.441C109.621 156.366 109.195 156.277 108.772 156.198C108.519 156.142 108.259 156.081 108.006 156.02C107.58 155.918 107.159 155.818 106.743 155.701C106.499 155.635 106.261 155.57 106.017 155.499C105.591 155.372 105.164 155.24 104.738 155.103C104.514 155.032 104.297 154.955 104.08 154.879C103.642 154.722 103.203 154.558 102.764 154.385C102.567 154.31 102.373 154.239 102.181 154.157C101.719 153.969 101.256 153.77 100.806 153.563C100.641 153.492 100.492 153.427 100.334 153.349C99.8306 153.116 99.3471 152.872 98.8537 152.619C98.7518 152.563 98.6449 152.512 98.5446 152.455C97.9706 152.15 97.4033 151.836 96.8441 151.506L96.7981 151.474C93.2303 149.348 90.0161 146.679 87.2712 143.562C81.0455 150.619 72.5236 155.246 63.2143 156.623C53.9049 158 44.4087 156.038 36.407 151.084C28.4053 146.131 22.4143 138.505 19.4948 129.558C16.5752 120.611 16.9154 110.919 20.4552 102.199C23.995 93.4788 30.5059 86.2924 38.8353 81.9124C47.1646 77.5323 56.775 76.2412 65.9649 78.2676C75.1548 80.2939 83.3313 85.507 89.0467 92.9839C94.7622 100.461 97.6478 109.719 97.1927 119.12C97.0004 121.538 97.4016 123.967 98.3615 126.196C99.3213 128.424 100.811 130.384 102.7 131.906C121.915 146.379 143.312 128.256 135.466 108.934C133.915 105.397 131.351 102.399 128.097 100.319C124.844 98.2383 121.047 97.1688 117.186 97.245C109.724 97.2437 102.412 95.1496 96.0808 91.2006C89.7495 87.2516 84.6525 81.606 81.3687 74.905C78.0849 68.2041 76.746 60.7165 77.504 53.2927C78.2621 45.8689 81.0867 38.8064 85.657 32.9077C90.2273 27.0089 96.3602 22.5102 103.359 19.9225C110.358 17.3349 117.942 16.7621 125.25 18.2692C132.558 19.7763 139.296 23.3028 144.701 28.4482C150.105 33.5937 153.958 40.1517 155.822 47.3775H134.443C132.257 43.5906 128.89 40.6255 124.857 38.9368C120.824 37.2482 116.349 36.9292 112.117 38.0289C108.635 38.9187 105.462 40.7416 102.939 43.3012C100.416 45.8608 98.6391 49.0603 97.7996 52.555C97.0773 55.4957 97.0328 58.5621 97.6694 61.5225C98.3061 64.4829 99.6072 67.2599 101.475 69.6435C103.342 72.0272 105.726 73.9552 108.448 75.2818C111.17 76.6084 114.158 77.299 117.186 77.3013C127.766 77.3013 137.913 81.5048 145.394 88.987C152.876 96.4692 157.079 106.617 157.079 117.199C157.079 127.78 152.876 137.928 145.394 145.41C137.913 152.893 127.766 157.096 117.186 157.096" fill="#1A1818"/>
<path d="M266.16 80.8438V26.4336H251.543V30.8743C250.055 29.6711 248.426 28.6537 246.692 27.8447C242.756 26.0953 238.46 25.3081 234.16 25.548C229.859 25.788 225.678 27.0482 221.961 29.2246C217.864 31.701 214.481 35.1988 212.142 39.3758C209.69 43.7024 208.424 48.6 208.473 53.5729C208.423 58.5677 209.687 63.4878 212.137 67.8408C214.476 72.0269 217.859 75.5364 221.956 78.0281C225.987 80.5128 230.634 81.8192 235.369 81.7994C239.274 81.8606 243.143 81.0457 246.692 79.4146C248.408 78.6086 250.021 77.5997 251.497 76.4097V80.8504L266.16 80.8438ZM252.214 53.5729C252.247 56.2198 251.583 58.8288 250.29 61.1386C249.062 63.346 247.25 65.1722 245.052 66.4164C242.806 67.6768 240.274 68.3387 237.699 68.3387C235.123 68.3387 232.591 67.6768 230.345 66.4164C228.134 65.1613 226.303 63.3321 225.046 61.1221C223.723 58.8315 223.046 56.2246 223.088 53.5795C223.042 50.9521 223.717 48.3625 225.041 46.0928C226.308 43.8968 228.139 42.0796 230.345 40.8297C232.592 39.5702 235.125 38.9087 237.701 38.9087C240.277 38.9087 242.81 39.5702 245.057 40.8297C247.242 42.073 249.052 43.8827 250.295 46.0681C251.587 48.3549 252.249 50.9434 252.214 53.5696" fill="#1A1818"/>
<path d="M294.588 52.999C294.588 48.3248 295.79 45.1209 298.278 43.1883C300.876 41.1686 304.723 40.1473 309.722 40.1473H311.752V25.8926L309.655 25.9584C305.625 26.0118 301.672 27.0707 298.155 29.0389C296.778 29.827 295.488 30.7569 294.305 31.8135V26.4337H279.925V80.8456H294.588V52.999Z" fill="#1A1818"/>
<path d="M365.09 60.9379V26.4336H350.57V60.4149C350.663 61.4984 350.502 62.5886 350.1 63.5991C349.698 64.6097 349.067 65.5128 348.256 66.2372C346.229 67.5679 343.856 68.2768 341.431 68.2768C339.006 68.2768 336.634 67.5679 334.606 66.2372C333.794 65.514 333.161 64.6111 332.758 63.6004C332.356 62.5896 332.195 61.4989 332.288 60.4149V26.4336H317.769V60.9379C317.677 64.8648 318.697 68.7377 320.713 72.1088C322.718 75.3159 325.638 77.8486 329.095 79.38C332.984 81.0672 337.192 81.8925 341.43 81.7994C345.664 81.8921 349.867 81.0668 353.752 79.38C357.21 77.8505 360.131 75.3209 362.139 72.117C364.154 68.7404 365.174 64.8638 365.083 60.933" fill="#1A1818"/>
<path d="M392.283 50.0518C392.212 47.8374 392.672 45.638 393.624 43.6374C394.377 42.0905 395.581 40.8079 397.077 39.9582C398.678 39.1099 400.468 38.6836 402.279 38.7198C406.578 38.7198 411.516 39.9632 411.516 49.713V80.8457H426.173V48.1982C426.288 43.9547 425.398 39.7441 423.574 35.9106C421.952 32.5989 419.356 29.8626 416.134 28.0686C412.97 26.414 409.459 25.532 405.888 25.4949C402.317 25.4577 398.789 26.2664 395.591 27.8548C394.404 28.5032 393.292 29.2809 392.277 30.1739V26.442H377.621V80.8457H392.283V50.0518Z" fill="#1A1818"/>
<path d="M242.388 125.21C239.884 123.952 237.27 122.928 234.578 122.15L232.853 121.622C230.579 120.946 228.808 120.356 227.539 119.85C226.565 119.483 225.668 118.936 224.895 118.237C224.677 118.041 224.504 117.799 224.391 117.529C224.277 117.258 224.225 116.966 224.237 116.673C224.213 116.209 224.314 115.748 224.529 115.336C224.743 114.925 225.064 114.578 225.457 114.332C227.482 112.947 231.289 112.852 235.42 114.206C237.392 114.854 239.25 115.808 240.926 117.033L242.595 118.24L250.188 107.393L248.478 106.242C245.837 104.471 242.946 103.104 239.901 102.186C233.555 100.158 226.714 100.301 220.458 102.594C217.471 103.765 214.867 105.742 212.936 108.304C210.97 111.024 209.951 114.314 210.038 117.669C209.908 120.776 210.829 123.835 212.651 126.353C214.234 128.432 216.29 130.102 218.649 131.225C221.325 132.437 224.081 133.464 226.896 134.301C229.449 135.072 231.388 135.722 232.697 136.245C233.71 136.631 234.637 137.216 235.422 137.965C235.689 138.233 235.896 138.554 236.03 138.907C236.164 139.261 236.221 139.639 236.198 140.016C236.238 140.597 236.126 141.179 235.873 141.704C235.621 142.229 235.236 142.679 234.757 143.011C232.327 144.751 227.322 144.68 222.566 142.727C220.205 141.79 218.009 140.482 216.06 138.853L214.274 137.33L206.937 148.995L208.454 150.116C211.408 152.252 214.661 153.94 218.108 155.126C221.855 156.432 225.798 157.089 229.766 157.07C233.404 157.132 237.016 156.454 240.383 155.075C243.523 153.812 246.196 151.61 248.037 148.77C249.878 145.93 250.798 142.591 250.67 139.208C250.783 136.097 249.932 133.027 248.234 130.418C246.739 128.235 244.736 126.448 242.398 125.21" fill="#1A1818"/>
<path d="M299.179 106.141C297.691 104.939 296.062 103.924 294.328 103.116C290.391 101.366 286.095 100.579 281.793 100.818C277.492 101.058 273.31 102.319 269.592 104.496C265.497 106.971 262.115 110.467 259.777 114.643C257.372 119.001 256.11 123.899 256.11 128.878C256.11 133.856 257.372 138.754 259.777 143.113C262.115 147.296 265.494 150.805 269.587 153.298C273.621 155.78 278.269 157.086 283.005 157.07C286.91 157.131 290.779 156.316 294.328 154.685C296.043 153.877 297.656 152.869 299.133 151.68V156.121H313.796V101.705H299.179V106.141ZM297.939 121.343C299.232 123.629 299.894 126.218 299.858 128.845C299.89 131.487 299.226 134.092 297.934 136.397C296.706 138.605 294.894 140.434 292.696 141.682C290.449 142.942 287.916 143.604 285.34 143.604C282.764 143.604 280.231 142.942 277.984 141.682C275.771 140.422 273.94 138.588 272.682 136.374C271.359 134.085 270.682 131.48 270.724 128.836C270.682 126.257 271.333 123.713 272.608 121.471C273.884 119.228 275.737 117.369 277.976 116.087C280.217 114.809 282.756 114.149 285.335 114.174C287.915 114.142 290.455 114.805 292.69 116.093C294.879 117.341 296.692 119.154 297.939 121.343Z" fill="#1A1818"/>
<path d="M344.129 87.7783H329.468V101.706H321.246V113.898H329.468V139.351C329.384 142.491 330.121 145.599 331.606 148.366C333.029 150.892 335.187 152.924 337.793 154.193C340.607 155.527 343.693 156.187 346.807 156.123H356.439V143.555H348.946C348.298 143.596 347.649 143.499 347.041 143.27C346.433 143.041 345.881 142.686 345.42 142.228C344.473 141.077 344.009 139.603 344.126 138.116V113.898H356.538V101.706H344.129V87.7783Z" fill="#1A1818"/>
<path d="M387.483 135.303L375.276 101.707H359.138L379.652 151.917L368.582 179.796H383.97L415.264 101.707H399.424L387.483 135.303Z" fill="#1A1818"/>
<path d="M459.345 106.141C457.857 104.94 456.228 103.924 454.494 103.117C450.557 101.366 446.261 100.578 441.959 100.818C437.658 101.057 433.475 102.319 429.758 104.497C425.663 106.971 422.281 110.468 419.943 114.643C417.538 119.002 416.276 123.899 416.276 128.878C416.276 133.856 417.538 138.754 419.943 143.113C422.282 147.298 425.663 150.807 429.758 153.3C433.792 155.782 438.439 157.088 443.176 157.071C447.081 157.133 450.95 156.318 454.499 154.687C456.214 153.879 457.827 152.871 459.304 151.682V156.122H473.96V101.706H459.343L459.345 106.141ZM458.097 121.343C459.39 123.63 460.052 126.219 460.016 128.845C460.048 131.488 459.384 134.092 458.092 136.397C456.863 138.606 455.051 140.434 452.854 141.682C450.607 142.942 448.074 143.604 445.498 143.604C442.922 143.604 440.389 142.942 438.142 141.682C435.932 140.421 434.102 138.588 432.847 136.374C431.523 134.086 430.846 131.48 430.888 128.837C430.846 126.257 431.497 123.713 432.773 121.471C434.048 119.228 435.902 117.369 438.14 116.087C440.381 114.809 442.921 114.149 445.5 114.174C448.079 114.142 450.619 114.805 452.854 116.093C455.04 117.34 456.85 119.151 458.097 121.337" fill="#1A1818"/>
<path d="M502.389 79.0278H487.727V156.117H502.389V79.0278Z" fill="#1A1818"/>
</svg>
