<svg width="56" height="56" viewBox="0 0 56 56" fill="none" xmlns="http://www.w3.org/2000/svg">
<path d="M25.4917 32.7833L38.7334 19.6L35.4084 16.275L25.4917 26.1917L20.5334 21.2333L17.2667 24.5L25.4917 32.7833ZM2.33337 49V44.3333H53.6667V49H2.33337ZM9.33337 42C8.05004 42 6.95143 41.5431 6.03754 40.6292C5.12365 39.7153 4.66671 38.6167 4.66671 37.3333V11.6667C4.66671 10.3833 5.12365 9.28472 6.03754 8.37083C6.95143 7.45694 8.05004 7 9.33337 7H46.6667C47.95 7 49.0487 7.45694 49.9625 8.37083C50.8764 9.28472 51.3334 10.3833 51.3334 11.6667V37.3333C51.3334 38.6167 50.8764 39.7153 49.9625 40.6292C49.0487 41.5431 47.95 42 46.6667 42H9.33337ZM9.33337 37.3333H46.6667V11.6667H9.33337V37.3333Z" fill="white"/>
</svg>
