<svg width="64" height="64" viewBox="0 0 64 64" fill="none" xmlns="http://www.w3.org/2000/svg">
<path d="M21.3333 47.9999L32 39.8666L42.6666 47.9999L38.6666 34.7999L49.3333 27.1999H36.2666L32 13.3333L27.7333 27.1999H14.6666L25.3333 34.7999L21.3333 47.9999ZM32 58.6666C28.3111 58.6666 24.8444 57.9666 21.6 56.5666C18.3555 55.1666 15.5333 53.2666 13.1333 50.8666C10.7333 48.4666 8.83331 45.6444 7.43331 42.3999C6.03331 39.1555 5.33331 35.6888 5.33331 31.9999C5.33331 28.311 6.03331 24.8444 7.43331 21.5999C8.83331 18.3555 10.7333 15.5333 13.1333 13.1333C15.5333 10.7333 18.3555 8.83325 21.6 7.43325C24.8444 6.03325 28.3111 5.33325 32 5.33325C35.6889 5.33325 39.1555 6.03325 42.4 7.43325C45.6444 8.83325 48.4666 10.7333 50.8666 13.1333C53.2666 15.5333 55.1666 18.3555 56.5667 21.5999C57.9666 24.8444 58.6666 28.311 58.6666 31.9999C58.6666 35.6888 57.9666 39.1555 56.5667 42.3999C55.1666 45.6444 53.2666 48.4666 50.8666 50.8666C48.4666 53.2666 45.6444 55.1666 42.4 56.5666C39.1555 57.9666 35.6889 58.6666 32 58.6666ZM32 53.3333C37.9555 53.3333 43 51.2666 47.1333 47.1333C51.2666 42.9999 53.3333 37.9555 53.3333 31.9999C53.3333 26.0444 51.2666 20.9999 47.1333 16.8666C43 12.7333 37.9555 10.6666 32 10.6666C26.0444 10.6666 21 12.7333 16.8666 16.8666C12.7333 20.9999 10.6666 26.0444 10.6666 31.9999C10.6666 37.9555 12.7333 42.9999 16.8666 47.1333C21 51.2666 26.0444 53.3333 32 53.3333Z" fill="white"/>
</svg>
